HIERARCHY
ROOT root
{
	OFFSET	0	13.1	24.9
	CHANNELS 6  Xposition Yposition Zposition Xrotation Yrotation Zrotation
	JOINT spine_1
	{
		OFFSET	0	9.99999	0
		CHANNELS 3  Xrotation Yrotation Zrotation
		JOINT spine_2
		{
			OFFSET	0	112	-10
			CHANNELS 3  Xrotation Yrotation Zrotation
			JOINT spine_3
			{
				OFFSET	0	206.5	19.3
				CHANNELS 3  Xrotation Yrotation Zrotation
				JOINT spine_4
				{
					OFFSET	0	110.4	14.6
					CHANNELS 3  Xrotation Yrotation Zrotation
					JOINT neck_1
					{
						OFFSET	0	71.8	-50.3
						CHANNELS 3  Xrotation Yrotation Zrotation
						JOINT neck_2
						{
							OFFSET	0	86.2	-25.8
							CHANNELS 3  Xrotation Yrotation Zrotation
							JOINT head_ee
							{
								OFFSET	0	179.8	-8.7
								CHANNELS 3  Xrotation Yrotation Zrotation
								End Site
								{
									OFFSET	1	0	0
								}
							}
						}
					}
					JOINT left_clavicle
					{
						OFFSET	-43.2	22.4	-70.8
						CHANNELS 3  Xrotation Yrotation Zrotation
						JOINT left_shoulder
						{
							OFFSET	-93.9	-5.79999	48.7
							CHANNELS 3  Xrotation Yrotation Zrotation
							JOINT left_elbow
							{
								OFFSET	-291.4	-30.8	15.2
								CHANNELS 3  Xrotation Yrotation Zrotation
								JOINT left_lowarm_twist
								{
									OFFSET	-110.7	-3.89999	13.6
									CHANNELS 3  Xrotation Yrotation Zrotation
									JOINT left_hand
									{
										OFFSET	-110.7	-3.89999	13.6
										CHANNELS 3  Xrotation Yrotation Zrotation
										JOINT left_ee
										{
											OFFSET	-80.8	-5.10001	12.1
											CHANNELS 3  Xrotation Yrotation Zrotation
											End Site
											{
												OFFSET	1	0	0
											}
										}
									}
								}
							}
						}
					}
					JOINT right_clavicle
					{
						OFFSET	43.2	22.4	-70.8
						CHANNELS 3  Xrotation Yrotation Zrotation
						JOINT right_shoulder
						{
							OFFSET	93.9	-5.79999	48.7
							CHANNELS 3  Xrotation Yrotation Zrotation
							JOINT right_elbow
							{
								OFFSET	291.4	-30.8	15.2
								CHANNELS 3  Xrotation Yrotation Zrotation
								JOINT right_lowarm_twist
								{
									OFFSET	110.7	-3.89999	13.6
									CHANNELS 3  Xrotation Yrotation Zrotation
									JOINT right_hand
									{
										OFFSET	110.7	-3.89999	13.6
										CHANNELS 3  Xrotation Yrotation Zrotation
										JOINT right_ee
										{
											OFFSET	80.8	-5.10001	12.1
											CHANNELS 3  Xrotation Yrotation Zrotation
											End Site
											{
												OFFSET	1	0	0
											}
										}
									}
								}
							}
						}
					}
				}
			}
		}
	}
	JOINT left_hip
	{
		OFFSET	-82.8	-127.5	0.300001
		CHANNELS 3  Xrotation Yrotation Zrotation
		JOINT left_knee
		{
			OFFSET	-28.2	-396.7	2.2
			CHANNELS 3  Xrotation Yrotation Zrotation
			JOINT left_ankle
			{
				OFFSET	-11.7	-411.3	35.4
				CHANNELS 3  Xrotation Yrotation Zrotation
				JOINT left_toes
				{
					OFFSET	0	-60	-88.6
					CHANNELS 3  Xrotation Yrotation Zrotation
					JOINT left_foot_ee
					{
						OFFSET	-22.5	-16.5	-42.2
						CHANNELS 3  Xrotation Yrotation Zrotation
						End Site
						{
							OFFSET	1	0	0
						}
					}
				}
			}
		}
	}
	JOINT right_hip
	{
		OFFSET	82.8	-127.5	0.300001
		CHANNELS 3  Xrotation Yrotation Zrotation
		JOINT right_knee
		{
			OFFSET	28.2	-396.7	2.2
			CHANNELS 3  Xrotation Yrotation Zrotation
			JOINT right_ankle
			{
				OFFSET	11.7	-411.3	35.4
				CHANNELS 3  Xrotation Yrotation Zrotation
				JOINT right_toes
				{
					OFFSET	0	-60	-88.6
					CHANNELS 3  Xrotation Yrotation Zrotation
					JOINT right_foot_ee
					{
						OFFSET	22.5	-16.5	-42.2
						CHANNELS 3  Xrotation Yrotation Zrotation
						End Site
						{
							OFFSET	1	0	0
						}
					}
				}
			}
		}
	}
}
MOTION
Frames: 16
Frame Time: 0.02
1631.16 704.053 -495.246 -167.271 -82.4933 -160.422 -0.254456 -0.47841 -2.77875 -0.25021 -0.300693 -2.80354 -0.232868 0.306777 -2.80288 -0.243804 -0.139554 -2.81615 -7.71159 8.02332 4.77577 -7.66699 11.5653 6.44573 -0.0 0.0 -0.0 6.2647 17.5609 11.7739 13.6227 -12.596 74.8584 2.4616 -50.6379 1.16473 85.0904 -4.43735 -8.87029 -4.30268 28.7455 -12.0659 -0.0 0.0 -0.0 10.4885 -9.3068 -19.8584 -8.09459 -12.0295 -54.4133 0.198756 5.62323 -0.00976111 51.023 1.04302 6.22128 4.77604 -3.48861 -35.3635 0.0 0.0 0.0 7.81741 22.1679 -12.8642 -1.55367 0.0608473 0.230662 15.803 -2.43334 -2.23063 4.85992 -0.0 -0.0 -0.0 0.0 -0.0 18.0984 6.47145 -10.9241 -13.5705 -0.316819 -2.05362 8.83438 -12.311 1.26434 -9.26403 0.0 0.0 0.0 0.0 0.0 
1643.73 704.583 -489.639 -167.945 -83.8314 -161.417 -0.330893 -0.557763 -2.58915 -0.327249 -0.391937 -2.61936 -0.306825 0.181485 -2.64228 -0.316489 -0.237943 -2.6378 -7.4814 8.00474 4.07371 -7.45087 12.0005 5.72795 -0.0 0.0 -0.0 6.25551 17.4339 11.766 12.4302 -11.8847 74.5381 2.37377 -49.6143 1.09732 84.867 -4.4106 -8.85998 -4.27803 28.655 -11.9894 -0.0 0.0 -0.0 10.6107 -8.97642 -20.1305 -7.39498 -12.3497 -54.8956 0.18245 5.16452 -0.00822846 51.5091 1.07895 6.27212 4.88773 -3.84212 -36.426 0.0 0.0 0.0 7.51883 22.0603 -13.2346 -2.09563 0.0805958 0.311492 15.8604 -2.73928 -2.24029 4.26584 -0.0 -0.0 -0.0 0.0 -0.0 17.2008 8.65846 -10.5875 -14.0269 -0.318965 -2.12362 6.88168 -13.2414 0.992262 -9.21969 0.0 0.0 0.0 0.0 0.0 
1656.28 700.893 -486.881 -171.895 -83.6186 -165.926 -0.181615 -0.288458 -2.56361 -0.177967 -0.124799 -2.57676 -0.170389 0.427369 -2.54416 -0.179421 0.0203426 -2.5797 -7.65138 8.73175 3.0168 -7.64662 14.1339 4.85345 -0.0 0.0 -0.0 5.1122 18.7873 9.92627 10.203 -15.0148 76.1273 2.59707 -52.1335 1.27059 85.199 -4.45037 -8.87527 -3.75385 28.6349 -9.11661 -0.0 0.0 -0.0 10.5444 -8.06704 -20.1067 -6.44044 -12.7895 -55.9545 0.191052 5.4066 -0.00902087 51.7885 1.09981 6.3012 4.56852 -3.71586 -33.7661 0.0 0.0 0.0 7.50808 21.9765 -12.9307 -6.12701 0.203341 0.917884 18.5403 -2.79865 -2.58768 4.44697 -0.0 -0.0 -0.0 0.0 -0.0 14.0195 11.6236 -10.4523 -10.552 -0.288603 -1.59139 12.4538 -10.9353 1.75741 -8.7564 0.0 0.0 0.0 0.0 0.0 
1673.01 701.036 -482.861 -177.678 -83.9263 -172.209 -0.0736947 -0.222158 -2.45828 -0.070335 -0.0653302 -2.46743 -0.0658781 0.457766 -2.4255 -0.0740812 0.069081 -2.46732 -6.93703 8.26284 2.95654 -6.91904 13.2167 4.62116 -0.0 0.0 -0.0 4.71116 21.6996 9.25471 8.62941 -19.1259 76.3731 2.35109 -49.3428 1.08008 85.1956 -4.44996 -8.87511 -3.32127 28.6876 -6.72823 -0.0 0.0 -0.0 10.6193 -6.52379 -20.4167 -4.78675 -13.6994 -56.2039 0.190698 5.39662 -0.0089874 53.9983 1.26969 6.52759 4.43712 -2.80629 -32.362 0.0 0.0 0.0 6.83908 21.4509 -12.6469 -10.0742 0.281905 1.51837 21.6765 -0.254836 -2.95977 4.72659 -0.0 -0.0 -0.0 0.0 -0.0 11.3414 13.6247 -10.2026 -7.25103 -0.229926 -1.08833 13.8691 -12.344 1.95016 -9.06639 0.0 0.0 0.0 0.0 0.0 
1687.25 699.053 -479.793 176.904 -82.6285 -178.017 -0.101043 -0.135082 -2.36445 -0.0979324 0.0156047 -2.36825 -0.0971337 0.517211 -2.31117 -0.104558 0.145821 -2.36381 -8.37315 8.86869 3.37051 -8.3773 14.2296 5.312 -0.0 0.0 -0.0 4.15981 23.4397 8.43989 6.83827 -20.2774 76.3608 2.28344 -48.5148 1.02908 85.1531 -4.44486 -8.87316 -3.14368 28.6151 -5.807 -0.0 0.0 -0.0 10.7577 -5.9589 -20.7475 -3.525 -12.1165 -56.6143 0.201579 5.70259 -0.0100397 54.24 1.28879 6.55195 4.35564 -3.17432 -31.8625 0.0 0.0 0.0 6.94413 20.4144 -13.1329 -13.8532 0.318214 2.09698 21.9196 -0.426991 -2.99045 4.67088 -0.0 -0.0 -0.0 0.0 -0.0 9.57921 16.8969 -9.81816 -6.30951 -0.207885 -0.945522 16.6006 -9.48314 2.30224 -9.39563 0.0 0.0 0.0 0.0 0.0 
1699.1 698.122 -476.232 177.448 -83.0462 -177.665 0.0669259 -0.0472584 -2.42674 0.0701958 0.107211 -2.42483 0.0669258 0.612088 -2.3488 0.059303 0.233572 -2.41594 -8.92605 8.73626 2.59678 -8.95506 14.5848 4.58703 -0.0 0.0 -0.0 3.49896 24.2567 7.52686 4.33222 -22.6903 76.6467 2.22847 -47.8213 0.988115 83.9928 -4.30633 -8.81863 -2.84331 28.5143 -4.23726 -0.0 0.0 -0.0 10.7591 -5.51328 -20.7946 -2.24733 -11.4994 -57.4552 0.195337 5.5271 -0.00942895 54.1005 1.27775 6.5379 4.15819 -3.13545 -30.3067 0.0 0.0 0.0 7.09798 19.6564 -13.3259 -16.2295 0.321478 2.46153 22.3249 -0.281965 -3.03853 4.70603 -0.0 -0.0 -0.0 0.0 -0.0 7.61012 18.1831 -9.10769 -3.5915 -0.131122 -0.535497 15.8747 -8.69322 2.2073 -9.76012 0.0 0.0 0.0 0.0 0.0 
1713.18 695.369 -471.104 177.608 -82.5979 -178.004 0.189719 -0.0582268 -2.33259 0.192742 0.0902788 -2.33157 0.190165 0.571118 -2.26238 0.183082 0.206751 -2.32414 -9.60193 9.32101 4.49329 -9.60915 14.4678 6.65423 -0.0 0.0 -0.0 3.14848 25.1809 7.0634 2.4073 -22.4064 76.1875 2.03661 -45.2479 0.84883 82.382 -4.11588 -8.7383 -2.61926 27.4714 -3.57698 -0.0 0.0 -0.0 10.8302 -4.98951 -20.9876 -1.69795 -11.1297 -58.0466 0.199701 5.6498 -0.00985406 54.383 1.30015 6.56633 4.0817 -2.98775 -29.6598 0.0 0.0 0.0 7.84809 19.3912 -12.898 -18.0052 0.314047 2.73386 25.4665 2.46668 -3.3934 5.39942 -0.0 -0.0 -0.0 0.0 -0.0 5.29964 19.0788 -9.1434 -1.38774 -0.0546479 -0.205952 20.4958 -8.10309 2.79241 -9.19154 0.0 0.0 0.0 0.0 0.0 
1732.12 690.738 -467.073 172.808 -81.4499 176.966 0.357535 0.0156762 -2.32447 0.360526 0.163516 -2.31877 0.354792 0.633742 -2.23652 0.347915 0.272672 -2.30849 -9.0359 9.2768 4.96853 -9.01645 13.975 7.04214 -0.0 0.0 -0.0 2.74784 25.611 6.5414 -1.06871 -23.2575 75.3681 1.92922 -43.6972 0.773593 81.7939 -4.04692 -8.70764 -2.29662 27.6344 -1.73034 -0.0 0.0 -0.0 10.9013 -4.5246 -21.1749 -0.779337 -10.2294 -58.733 0.213684 6.04255 -0.0112782 54.781 1.33194 6.60619 3.83551 -2.76165 -27.6986 0.0 0.0 0.0 8.62184 17.404 -13.722 -25.1157 0.199953 3.81828 27.441 6.69315 -3.60846 6.18072 -0.0 -0.0 -0.0 0.0 -0.0 2.86724 21.9811 -9.03242 -0.675352 -0.0272187 -0.100066 25.0335 -6.42647 3.33461 -9.07295 0.0 0.0 0.0 0.0 0.0 
1750.3 690.268 -463.428 168.577 -81.1438 172.491 0.392456 0.0322195 -2.23267 0.395213 0.174189 -2.2261 0.389219 0.623955 -2.144 0.382911 0.277608 -2.21559 -10.4173 8.86767 6.29681 -10.3674 12.5165 8.36957 -0.0 0.0 -0.0 2.62518 25.4755 6.37627 -4.11142 -20.9071 74.9209 1.73141 -40.6158 0.640781 80.5102 -3.8975 -8.63827 -2.11699 26.6326 -1.24397 -0.0 0.0 -0.0 10.9362 -3.51749 -21.3373 0.809878 -9.50313 -59.37 0.196946 5.57235 -0.0095847 55.3015 1.37394 6.658 3.56943 -3.66362 -26.0537 0.0 0.0 0.0 9.01358 16.2939 -13.9974 -30.2538 0.0342607 4.58916 28.8141 10.8101 -3.77176 6.74541 -0.0 -0.0 -0.0 0.0 -0.0 0.624709 23.546 -8.76462 -0.121156 -0.00497009 -0.0179283 27.9958 -6.15412 3.67008 -9.39021 0.0 0.0 0.0 0.0 0.0 
1760.94 689.439 -459.038 164.748 -81.1262 168.419 0.518819 0.0496341 -2.15944 0.521393 0.186912 -2.15191 0.515002 0.616746 -2.07013 0.509133 0.282146 -2.14152 -11.3425 8.85403 7.20079 -11.2663 12.0485 9.32311 -0.0 0.0 -0.0 2.35219 25.3668 6.0126 -6.6651 -21.3693 74.5481 1.64337 -39.1451 0.584325 79.7735 -3.81245 -8.59695 -1.9291 26.8326 -0.111236 -0.0 0.0 -0.0 10.9843 -2.59205 -21.5145 3.13702 -9.19579 -59.9605 0.202086 5.71682 -0.0100902 55.6265 1.4004 6.69015 3.51107 -3.56798 -25.5863 0.0 0.0 0.0 9.358 15.5223 -14.1814 -33.7063 -0.115644 5.09765 30.7255 13.0619 -3.99475 7.07031 -0.0 -0.0 -0.0 0.0 -0.0 -1.53798 24.2834 -8.5591 0.25865 0.010737 0.0382397 30.4339 -5.38739 3.93456 -9.50161 0.0 0.0 0.0 0.0 0.0 
1773.96 693.013 -457.952 162.599 -81.9432 166.009 0.56382 -0.0122511 -2.12345 0.56632 0.122864 -2.11993 0.562418 0.545821 -2.05217 0.556605 0.214945 -2.11258 -11.5337 8.57675 7.60988 -11.4343 11.2882 9.65627 -0.0 0.0 -0.0 2.21973 25.2984 5.83502 -9.28597 -22.9975 73.9763 1.48938 -36.4175 0.48996 78.8505 -3.70666 -8.54365 -1.83462 26.2397 0.128354 -0.0 0.0 -0.0 11.2903 -1.76451 -22.2163 4.67223 -8.94471 -60.2531 0.251439 7.1001 -0.0155992 56.2811 1.45425 6.75446 3.44205 -3.27765 -24.9686 0.0 0.0 0.0 11.067 14.7691 -14.1846 -35.8768 -0.225499 5.41245 30.9479 15.6321 -4.04484 7.51042 -0.0 -0.0 -0.0 0.0 -0.0 -2.89293 25.1681 -8.25516 0.522792 0.0218803 0.0772418 34.3096 -4.7542 4.33143 -8.52475 0.0 0.0 0.0 0.0 0.0 
1789.03 695.518 -458.39 153.894 -83.7187 156.918 0.553182 -0.101804 -2.06439 0.555553 0.029736 -2.06669 0.555179 0.444091 -2.01865 0.549512 0.119781 -2.06343 -12.2229 7.96415 6.92371 -12.152 10.6871 8.89267 -0.0 0.0 -0.0 2.11916 25.2151 5.69851 -11.4314 -22.2895 73.913 1.40381 -34.8131 0.440124 78.1397 -3.62578 -8.50144 -2.0641 26.302 -1.11361 -0.0 0.0 -0.0 10.9446 -1.08421 -21.5481 6.33907 -8.52441 -61.2164 0.277162 7.81789 -0.0189386 56.7314 1.49173 6.79835 3.41493 -3.3824 -24.8093 0.0 0.0 0.0 12.0113 14.4404 -13.3002 -38.1148 -0.351209 5.73255 29.1457 17.346 -3.86822 6.93547 -0.0 -0.0 -0.0 0.0 -0.0 -4.13683 26.2387 -7.74446 -0.696962 -0.0280704 -0.103273 33.1873 -5.41612 4.21917 -9.13382 0.0 0.0 0.0 0.0 0.0 
1797.58 690.689 -456.031 151.31 -84.3214 154.209 0.524752 -0.045971 -2.01461 0.527007 0.0822904 -2.01345 0.524747 0.485947 -1.95569 0.51945 0.171049 -2.00786 -11.9772 8.01486 6.49579 -11.9239 11.0197 8.47752 -0.0 0.0 -0.0 2.38611 24.3086 6.01844 -13.7796 -22.3977 73.2897 1.31484 -33.0759 0.390436 76.7443 -3.46856 -8.4157 -2.18002 26.4934 -1.66102 -0.0 0.0 -0.0 10.7479 -0.226049 -21.1952 8.27403 -7.86331 -62.3373 0.287084 8.09411 -0.0203119 56.9458 1.50969 6.81914 3.41341 -3.4749 -24.833 0.0 0.0 0.0 12.9418 11.1656 -12.7943 -40.7646 -0.516124 6.10497 29.8526 18.793 -3.96788 7.43976 -0.0 -0.0 -0.0 0.0 -0.0 -5.05994 26.0222 -7.68612 0.166674 0.00689928 0.0246471 34.2289 -6.02074 4.32303 -9.2039 0.0 0.0 0.0 0.0 0.0 
1809.42 690.536 -455.589 143.077 -84.2328 145.315 0.477064 -0.00893079 -1.78418 0.478829 0.104601 -1.78113 0.476067 0.46247 -1.72324 0.47197 0.184557 -1.77463 -14.1503 7.3664 5.38123 -14.1562 10.792 7.43233 -0.0 0.0 -0.0 2.95984 24.0177 6.78891 -15.5108 -20.5189 72.3483 1.00578 -26.4836 0.236685 76.0574 -3.39193 -8.37208 -2.46283 26.0761 -3.44189 -0.0 0.0 -0.0 10.6879 0.798251 -21.1291 10.2788 -7.21265 -64.0424 0.389091 10.9099 -0.0371565 57.5769 1.56302 6.87995 3.34252 -3.55066 -24.343 0.0 0.0 0.0 14.4481 9.46953 -12.4672 -42.2805 -0.618189 6.31454 27.6355 20.0916 -3.73586 4.78442 -0.0 -0.0 -0.0 0.0 -0.0 -7.40658 27.4709 -6.79247 0.399753 0.0166673 0.0590806 34.0763 -4.77239 4.3084 -8.99476 0.0 0.0 0.0 0.0 0.0 
1819.03 688.05 -455.837 125.691 -85.3913 127.677 0.471365 -0.079772 -1.63139 0.472846 0.0241854 -1.63316 0.472623 0.353851 -1.59456 0.469087 0.0976137 -1.63042 -14.8967 6.76373 5.38918 -14.8927 9.72746 7.31309 -0.0 0.0 -0.0 2.87118 23.1497 6.64636 -16.5955 -19.082 72.3359 0.848553 -22.7992 0.171095 76.6622 -3.45938 -8.41053 -2.13547 26.0061 -1.65533 -0.0 0.0 -0.0 10.333 1.7549 -20.4294 12.254 -6.52008 -65.3414 0.433258 12.1134 -0.0459711 58.1042 1.60809 6.93032 3.2387 -3.49628 -23.5672 0.0 0.0 0.0 16.2198 8.97091 -12.1609 -43.8068 -0.72654 6.52279 28.6814 20.6247 -3.86533 3.95196 -0.0 -0.0 -0.0 0.0 -0.0 -8.86192 28.3945 -6.73083 0.697217 0.0293376 0.102969 36.0853 -4.4438 4.50328 -8.03847 0.0 0.0 0.0 0.0 0.0 
1830.06 687.867 -452.127 121.78 -85.3891 123.482 0.493693 0.00278082 -1.51279 0.494961 0.099027 -1.50955 0.492691 0.401658 -1.45851 0.489761 0.1663 -1.50363 -15.5474 6.42044 4.76081 -15.5644 9.51558 6.66671 -0.0 0.0 -0.0 3.04113 22.6214 6.87122 -18.3036 -17.7336 71.4386 0.633768 -17.4298 0.0971499 76.2618 -3.41468 -8.38516 -2.28886 26.0027 -2.5107 -0.0 0.0 -0.0 10.3965 2.74716 -20.6033 14.1788 -5.8882 -66.7329 0.499708 13.9037 -0.0609306 58.4698 1.63961 6.96499 3.20853 -3.61285 -23.3924 0.0 0.0 0.0 17.3351 7.49353 -11.7175 -45.1583 -0.827113 6.70479 28.4918 21.0998 -3.8518 2.86441 -0.0 -0.0 -0.0 0.0 -0.0 -10.1887 29.125 -6.44823 0.662795 0.0278595 0.0978937 35.9111 -4.43507 4.48676 -7.95164 0.0 0.0 0.0 0.0 0.0 
